{
	"asset":{
		"generator":"Khronos glTF Blender I/O v5.1.18",
		"version":"2.0"
	},
	"extensionsUsed":[
		"KHR_lights_punctual",
		"KHR_materials_specular"
	],
	"extensionsRequired":[
		"KHR_lights_punctual"
	],
	"extensions":{
		"KHR_lights_punctual":{
			"lights":[
				{
					"color":[
						1,
						1,
						1
					],
					"intensity":79.57747154594767,
					"type":"point",
					"name":"Light"
				},
				{
					"color":[
						1,
						1,
						1
					],
					"intensity":79.57747154594767,
					"type":"point",
					"name":"Light.001"
				},
				{
					"color":[
						1,
						1,
						1
					],
					"intensity":79.57747154594767,
					"type":"point",
					"name":"Light.002"
				}
			]
		}
	},
	"scene":0,
	"scenes":[
		{
			"extras":{
				"ypui":{
					"expand_channels":0,
					"expand_mask_channels":0,
					"show_bake_targets":0,
					"show_channels":1,
					"show_layers":1,
					"show_materials":0,
					"show_object":0,
					"show_stats":0,
					"show_support":0,
					"show_test":0,
					"tree_name":""
				},
				"uuid":"c8173732-b617-4159-85a0-d69e8aed3935",
				"assets reported":{}
			},
			"name":"Scene",
			"nodes":[
				0,
				1,
				2,
				3,
				4,
				31
			]
		}
	],
	"nodes":[
		{
			"extensions":{
				"KHR_lights_punctual":{
					"light":0
				}
			},
			"name":"Light",
			"rotation":[
				-0.28416627645492554,
				0.7269423007965088,
				0.34203392267227173,
				0.5232754945755005
			],
			"translation":[
				4.076245307922363,
				5.903861999511719,
				-1.0054539442062378
			]
		},
		{
			"camera":0,
			"name":"Camera",
			"rotation":[
				-0.20997299253940582,
				0.3857799470424652,
				0.09062844514846802,
				0.8937962055206299
			],
			"translation":[
				7.358891487121582,
				4.958309173583984,
				6.925790786743164
			]
		},
		{
			"mesh":0,
			"name":"t pose bloood master"
		},
		{
			"extensions":{
				"KHR_lights_punctual":{
					"light":1
				}
			},
			"name":"Light.001",
			"rotation":[
				-0.28416627645492554,
				0.7269423007965088,
				0.34203392267227173,
				0.5232754945755005
			],
			"translation":[
				1.1896508932113647,
				0.9355019330978394,
				1.4368664026260376
			]
		},
		{
			"extensions":{
				"KHR_lights_punctual":{
					"light":2
				}
			},
			"name":"Light.002",
			"rotation":[
				-0.28416627645492554,
				0.7269423007965088,
				0.34203392267227173,
				0.5232754945755005
			],
			"translation":[
				1.1896508932113647,
				0.9355019330978394,
				1.4368664026260376
			]
		},
		{
			"name":"mixamorig:HeadTop_End",
			"rotation":[
				1.7763568394002505e-15,
				0,
				0,
				1
			],
			"translation":[
				0,
				104.95379638671875,
				147.8312530517578
			]
		},
		{
			"children":[
				5
			],
			"name":"mixamorig:Head",
			"rotation":[
				1.7763568394002505e-15,
				0,
				0,
				1
			],
			"translation":[
				0,
				83.74250793457031,
				117.95433044433594
			]
		},
		{
			"children":[
				6
			],
			"name":"mixamorig:Neck",
			"rotation":[
				-0.13723385334014893,
				0,
				0,
				0.9905386567115784
			],
			"translation":[
				0,
				125.62128448486328,
				1.1920928955078125e-06
			]
		},
		{
			"name":"mixamorig:LeftHand",
			"rotation":[
				5.227047594758005e-08,
				3.0311635867974474e-08,
				4.062894731760025e-08,
				1
			],
			"scale":[
				1.0000001192092896,
				1,
				1.0000001192092896
			],
			"translation":[
				-1.1920928955078125e-05,
				397.9754333496094,
				2.09808349609375e-05
			]
		},
		{
			"children":[
				8
			],
			"name":"mixamorig:LeftForeArm",
			"rotation":[
				-0.14249862730503082,
				0.005268034990876913,
				-0.036566272377967834,
				0.9891052842140198
			],
			"scale":[
				0.9999999403953552,
				1,
				1
			],
			"translation":[
				1.621246337890625e-05,
				202.05471801757812,
				-1.33514404296875e-05
			]
		},
		{
			"children":[
				9
			],
			"name":"mixamorig:LeftArm",
			"rotation":[
				0.009623474441468716,
				-5.992896331008524e-05,
				-0.006231366191059351,
				0.9999343156814575
			],
			"scale":[
				1,
				0.9999999403953552,
				0.9999998807907104
			],
			"translation":[
				-1.811981201171875e-05,
				125.78314971923828,
				1.33514404296875e-05
			]
		},
		{
			"children":[
				10
			],
			"name":"mixamorig:LeftShoulder",
			"rotation":[
				0.5875398516654968,
				0.4091032147407532,
				-0.5451841950416565,
				0.43612590432167053
			],
			"scale":[
				1,
				1,
				0.9999999403953552
			],
			"translation":[
				64.38560485839844,
				104.386474609375,
				5.114441871643066
			]
		},
		{
			"name":"mixamorig:RightHand",
			"rotation":[
				-2.0605511963367462e-08,
				-9.777431841939688e-08,
				-9.42964106798172e-09,
				1
			],
			"translation":[
				-1.049041748046875e-05,
				397.99810791015625,
				-2.09808349609375e-05
			]
		},
		{
			"children":[
				12
			],
			"name":"mixamorig:RightForeArm",
			"rotation":[
				-0.16095466911792755,
				0.004146717954427004,
				-0.025418801233172417,
				0.9866257309913635
			],
			"scale":[
				0.9999999403953552,
				1,
				1
			],
			"translation":[
				7.62939453125e-06,
				204.74595642089844,
				-9.5367431640625e-06
			]
		},
		{
			"children":[
				13
			],
			"name":"mixamorig:RightArm",
			"rotation":[
				0.03282075747847557,
				0.0027462493162602186,
				0.08333361893892288,
				0.9959772825241089
			],
			"scale":[
				0.9999998807907104,
				1,
				1.0000001192092896
			],
			"translation":[
				3.814697265625e-06,
				125.78319549560547,
				2.47955322265625e-05
			]
		},
		{
			"children":[
				14
			],
			"name":"mixamorig:RightShoulder",
			"rotation":[
				0.5928890705108643,
				-0.4050150513648987,
				0.5359396934509277,
				0.4440879225730896
			],
			"scale":[
				0.9999999403953552,
				0.9999998211860657,
				0.9999999403953552
			],
			"translation":[
				-64.38565063476562,
				104.84937286376953,
				6.752938270568848
			]
		},
		{
			"children":[
				7,
				11,
				15
			],
			"name":"mixamorig:Spine2",
			"rotation":[
				-1.4901161193847656e-08,
				0,
				0,
				1
			],
			"translation":[
				0,
				111.66339111328125,
				-1.0251998901367188e-05
			]
		},
		{
			"children":[
				16
			],
			"name":"mixamorig:Spine1",
			"rotation":[
				-2.9802322387695312e-08,
				0,
				0,
				1
			],
			"translation":[
				0,
				97.70545959472656,
				-1.9073486328125e-06
			]
		},
		{
			"children":[
				17
			],
			"name":"mixamorig:Spine",
			"rotation":[
				0.13723385334014893,
				0,
				0,
				0.9905386567115784
			],
			"translation":[
				3.0517578125e-05,
				80.59309387207031,
				22.768518447875977
			]
		},
		{
			"name":"mixamorig:LeftToe_End",
			"rotation":[
				-5.103647708892822e-07,
				2.0954759349933738e-07,
				-6.360933184623718e-07,
				1
			],
			"scale":[
				0.9999999403953552,
				1,
				1
			],
			"translation":[
				2.09808349609375e-05,
				41.53553771972656,
				-4.673004150390625e-05
			]
		},
		{
			"children":[
				19
			],
			"name":"mixamorig:LeftToeBase",
			"rotation":[
				0.2779335081577301,
				0.01721826195716858,
				-0.004982481710612774,
				0.9604330658912659
			],
			"scale":[
				1.0000001192092896,
				1,
				1
			],
			"translation":[
				-1.1444091796875e-05,
				57.8227424621582,
				1.1444091796875e-05
			]
		},
		{
			"children":[
				20
			],
			"name":"mixamorig:LeftFoot",
			"rotation":[
				0.4123609662055969,
				-0.5599015355110168,
				0.3775842487812042,
				0.6114727258682251
			],
			"scale":[
				1,
				1.0000001192092896,
				1
			],
			"translation":[
				-2.384185791015625e-07,
				244.72560119628906,
				-7.987022399902344e-06
			]
		},
		{
			"children":[
				21
			],
			"name":"mixamorig:LeftLeg",
			"rotation":[
				-0.12910199165344238,
				0.0059390743263065815,
				-0.045562129467725754,
				0.9905662536621094
			],
			"scale":[
				0.9999998807907104,
				0.9999998807907104,
				0.9999999403953552
			],
			"translation":[
				3.0934810638427734e-05,
				297.7806091308594,
				-1.1630443623289466e-05
			]
		},
		{
			"children":[
				22
			],
			"name":"mixamorig:LeftUpLeg",
			"rotation":[
				0.0027301220688968897,
				0.07754932343959808,
				-0.9963675737380981,
				0.035075630992650986
			],
			"scale":[
				1.0000007152557373,
				1,
				1.0000038146972656
			],
			"translation":[
				111.63853454589844,
				-44.73640823364258,
				-10.469038963317871
			]
		},
		{
			"name":"mixamorig:RightToe_End",
			"rotation":[
				2.668239176273346e-07,
				1.0915100574493408e-06,
				-1.475680505791388e-06,
				1
			],
			"scale":[
				1.0000001192092896,
				1,
				1
			],
			"translation":[
				-3.910064697265625e-05,
				41.08599853515625,
				-3.814697265625e-05
			]
		},
		{
			"children":[
				24
			],
			"name":"mixamorig:RightToeBase",
			"rotation":[
				0.2707130014896393,
				0.08823090046644211,
				-0.024924261495471,
				0.9582841992378235
			],
			"scale":[
				0.9999998807907104,
				0.9999999403953552,
				0.9999998807907104
			],
			"translation":[
				-4.57763671875e-05,
				58.18301010131836,
				-3.0517578125e-05
			]
		},
		{
			"children":[
				25
			],
			"name":"mixamorig:RightFoot",
			"rotation":[
				0.44570192694664,
				0.4941217303276062,
				-0.32858380675315857,
				0.6702433824539185
			],
			"translation":[
				4.1961669921875e-05,
				266.3189392089844,
				-7.62939453125e-06
			]
		},
		{
			"children":[
				26
			],
			"name":"mixamorig:RightLeg",
			"rotation":[
				-0.23445095121860504,
				0.08808119595050812,
				0.021335754543542862,
				0.9678942561149597
			],
			"scale":[
				0.9999997615814209,
				0.9999999403953552,
				1
			],
			"translation":[
				7.3015689849853516e-06,
				295.8293151855469,
				-9.96195012703538e-06
			]
		},
		{
			"children":[
				27
			],
			"name":"mixamorig:RightUpLeg",
			"rotation":[
				0.0018565464997664094,
				-0.05237770825624466,
				0.9979991912841797,
				0.035365473479032516
			],
			"scale":[
				1.0000004768371582,
				1,
				1.0000009536743164
			],
			"translation":[
				-111.63848876953125,
				-44.736412048339844,
				9.116281509399414
			]
		},
		{
			"children":[
				18,
				23,
				28
			],
			"name":"mixamorig:Hips",
			"rotation":[
				-0.7071067690849304,
				0,
				0,
				0.7071067690849304
			],
			"translation":[
				-7.74212646484375,
				-21.32880973815918,
				89.21116638183594
			]
		},
		{
			"mesh":1,
			"name":"Cube",
			"skin":0
		},
		{
			"children":[
				30,
				29
			],
			"name":"Blood master anim",
			"rotation":[
				0.7071068286895752,
				0,
				0,
				0.7071068286895752
			],
			"scale":[
				0.0019000665051862597,
				0.0019000665051862597,
				0.0019000665051862597
			],
			"translation":[
				-0.5299922823905945,
				0,
				0
			]
		}
	],
	"cameras":[
		{
			"name":"Camera",
			"perspective":{
				"aspectRatio":1.7777777777777777,
				"yfov":0.39959652046304894,
				"zfar":100,
				"znear":0.10000000149011612
			},
			"type":"perspective"
		}
	],
	"animations":[
		{
			"channels":[
				{
					"sampler":0,
					"target":{
						"node":29,
						"path":"translation"
					}
				},
				{
					"sampler":1,
					"target":{
						"node":29,
						"path":"rotation"
					}
				},
				{
					"sampler":2,
					"target":{
						"node":29,
						"path":"scale"
					}
				},
				{
					"sampler":3,
					"target":{
						"node":18,
						"path":"translation"
					}
				},
				{
					"sampler":4,
					"target":{
						"node":18,
						"path":"rotation"
					}
				},
				{
					"sampler":5,
					"target":{
						"node":18,
						"path":"scale"
					}
				},
				{
					"sampler":6,
					"target":{
						"node":17,
						"path":"translation"
					}
				},
				{
					"sampler":7,
					"target":{
						"node":17,
						"path":"rotation"
					}
				},
				{
					"sampler":8,
					"target":{
						"node":17,
						"path":"scale"
					}
				},
				{
					"sampler":9,
					"target":{
						"node":16,
						"path":"translation"
					}
				},
				{
					"sampler":10,
					"target":{
						"node":16,
						"path":"rotation"
					}
				},
				{
					"sampler":11,
					"target":{
						"node":16,
						"path":"scale"
					}
				},
				{
					"sampler":12,
					"target":{
						"node":7,
						"path":"translation"
					}
				},
				{
					"sampler":13,
					"target":{
						"node":7,
						"path":"rotation"
					}
				},
				{
					"sampler":14,
					"target":{
						"node":7,
						"path":"scale"
					}
				},
				{
					"sampler":15,
					"target":{
						"node":6,
						"path":"translation"
					}
				},
				{
					"sampler":16,
					"target":{
						"node":6,
						"path":"rotation"
					}
				},
				{
					"sampler":17,
					"target":{
						"node":6,
						"path":"scale"
					}
				},
				{
					"sampler":18,
					"target":{
						"node":5,
						"path":"translation"
					}
				},
				{
					"sampler":19,
					"target":{
						"node":5,
						"path":"rotation"
					}
				},
				{
					"sampler":20,
					"target":{
						"node":5,
						"path":"scale"
					}
				},
				{
					"sampler":21,
					"target":{
						"node":11,
						"path":"translation"
					}
				},
				{
					"sampler":22,
					"target":{
						"node":11,
						"path":"rotation"
					}
				},
				{
					"sampler":23,
					"target":{
						"node":11,
						"path":"scale"
					}
				},
				{
					"sampler":24,
					"target":{
						"node":10,
						"path":"translation"
					}
				},
				{
					"sampler":25,
					"target":{
						"node":10,
						"path":"rotation"
					}
				},
				{
					"sampler":26,
					"target":{
						"node":10,
						"path":"scale"
					}
				},
				{
					"sampler":27,
					"target":{
						"node":9,
						"path":"translation"
					}
				},
				{
					"sampler":28,
					"target":{
						"node":9,
						"path":"rotation"
					}
				},
				{
					"sampler":29,
					"target":{
						"node":9,
						"path":"scale"
					}
				},
				{
					"sampler":30,
					"target":{
						"node":8,
						"path":"translation"
					}
				},
				{
					"sampler":31,
					"target":{
						"node":8,
						"path":"rotation"
					}
				},
				{
					"sampler":32,
					"target":{
						"node":8,
						"path":"scale"
					}
				},
				{
					"sampler":33,
					"target":{
						"node":15,
						"path":"translation"
					}
				},
				{
					"sampler":34,
					"target":{
						"node":15,
						"path":"rotation"
					}
				},
				{
					"sampler":35,
					"target":{
						"node":15,
						"path":"scale"
					}
				},
				{
					"sampler":36,
					"target":{
						"node":14,
						"path":"translation"
					}
				},
				{
					"sampler":37,
					"target":{
						"node":14,
						"path":"rotation"
					}
				},
				{
					"sampler":38,
					"target":{
						"node":14,
						"path":"scale"
					}
				},
				{
					"sampler":39,
					"target":{
						"node":13,
						"path":"translation"
					}
				},
				{
					"sampler":40,
					"target":{
						"node":13,
						"path":"rotation"
					}
				},
				{
					"sampler":41,
					"target":{
						"node":13,
						"path":"scale"
					}
				},
				{
					"sampler":42,
					"target":{
						"node":12,
						"path":"translation"
					}
				},
				{
					"sampler":43,
					"target":{
						"node":12,
						"path":"rotation"
					}
				},
				{
					"sampler":44,
					"target":{
						"node":12,
						"path":"scale"
					}
				},
				{
					"sampler":45,
					"target":{
						"node":23,
						"path":"translation"
					}
				},
				{
					"sampler":46,
					"target":{
						"node":23,
						"path":"rotation"
					}
				},
				{
					"sampler":47,
					"target":{
						"node":23,
						"path":"scale"
					}
				},
				{
					"sampler":48,
					"target":{
						"node":22,
						"path":"translation"
					}
				},
				{
					"sampler":49,
					"target":{
						"node":22,
						"path":"rotation"
					}
				},
				{
					"sampler":50,
					"target":{
						"node":22,
						"path":"scale"
					}
				},
				{
					"sampler":51,
					"target":{
						"node":21,
						"path":"translation"
					}
				},
				{
					"sampler":52,
					"target":{
						"node":21,
						"path":"rotation"
					}
				},
				{
					"sampler":53,
					"target":{
						"node":21,
						"path":"scale"
					}
				},
				{
					"sampler":54,
					"target":{
						"node":20,
						"path":"translation"
					}
				},
				{
					"sampler":55,
					"target":{
						"node":20,
						"path":"rotation"
					}
				},
				{
					"sampler":56,
					"target":{
						"node":20,
						"path":"scale"
					}
				},
				{
					"sampler":57,
					"target":{
						"node":19,
						"path":"translation"
					}
				},
				{
					"sampler":58,
					"target":{
						"node":19,
						"path":"rotation"
					}
				},
				{
					"sampler":59,
					"target":{
						"node":19,
						"path":"scale"
					}
				},
				{
					"sampler":60,
					"target":{
						"node":28,
						"path":"translation"
					}
				},
				{
					"sampler":61,
					"target":{
						"node":28,
						"path":"rotation"
					}
				},
				{
					"sampler":62,
					"target":{
						"node":28,
						"path":"scale"
					}
				},
				{
					"sampler":63,
					"target":{
						"node":27,
						"path":"translation"
					}
				},
				{
					"sampler":64,
					"target":{
						"node":27,
						"path":"rotation"
					}
				},
				{
					"sampler":65,
					"target":{
						"node":27,
						"path":"scale"
					}
				},
				{
					"sampler":66,
					"target":{
						"node":26,
						"path":"translation"
					}
				},
				{
					"sampler":67,
					"target":{
						"node":26,
						"path":"rotation"
					}
				},
				{
					"sampler":68,
					"target":{
						"node":26,
						"path":"scale"
					}
				},
				{
					"sampler":69,
					"target":{
						"node":25,
						"path":"translation"
					}
				},
				{
					"sampler":70,
					"target":{
						"node":25,
						"path":"rotation"
					}
				},
				{
					"sampler":71,
					"target":{
						"node":25,
						"path":"scale"
					}
				},
				{
					"sampler":72,
					"target":{
						"node":24,
						"path":"translation"
					}
				},
				{
					"sampler":73,
					"target":{
						"node":24,
						"path":"rotation"
					}
				},
				{
					"sampler":74,
					"target":{
						"node":24,
						"path":"scale"
					}
				}
			],
			"name":"Armature|mixamo.com|Layer0.002",
			"samplers":[
				{
					"input":101,
					"interpolation":"LINEAR",
					"output":102
				},
				{
					"input":101,
					"interpolation":"LINEAR",
					"output":103
				},
				{
					"input":104,
					"interpolation":"LINEAR",
					"output":105
				},
				{
					"input":101,
					"interpolation":"LINEAR",
					"output":106
				},
				{
					"input":101,
					"interpolation":"LINEAR",
					"output":107
				},
				{
					"input":104,
					"interpolation":"LINEAR",
					"output":108
				},
				{
					"input":101,
					"interpolation":"LINEAR",
					"output":109
				},
				{
					"input":101,
					"interpolation":"LINEAR",
					"output":110
				},
				{
					"input":104,
					"interpolation":"STEP",
					"output":111
				},
				{
					"input":101,
					"interpolation":"LINEAR",
					"output":112
				},
				{
					"input":101,
					"interpolation":"LINEAR",
					"output":113
				},
				{
					"input":104,
					"interpolation":"STEP",
					"output":114
				},
				{
					"input":101,
					"interpolation":"LINEAR",
					"output":115
				},
				{
					"input":101,
					"interpolation":"LINEAR",
					"output":116
				},
				{
					"input":104,
					"interpolation":"LINEAR",
					"output":117
				},
				{
					"input":101,
					"interpolation":"LINEAR",
					"output":118
				},
				{
					"input":101,
					"interpolation":"LINEAR",
					"output":119
				},
				{
					"input":104,
					"interpolation":"LINEAR",
					"output":120
				},
				{
					"input":101,
					"interpolation":"LINEAR",
					"output":121
				},
				{
					"input":104,
					"interpolation":"STEP",
					"output":122
				},
				{
					"input":104,
					"interpolation":"STEP",
					"output":123
				},
				{
					"input":101,
					"interpolation":"LINEAR",
					"output":124
				},
				{
					"input":101,
					"interpolation":"LINEAR",
					"output":125
				},
				{
					"input":104,
					"interpolation":"STEP",
					"output":126
				},
				{
					"input":101,
					"interpolation":"LINEAR",
					"output":127
				},
				{
					"input":101,
					"interpolation":"LINEAR",
					"output":128
				},
				{
					"input":104,
					"interpolation":"LINEAR",
					"output":129
				},
				{
					"input":101,
					"interpolation":"LINEAR",
					"output":130
				},
				{
					"input":101,
					"interpolation":"LINEAR",
					"output":131
				},
				{
					"input":104,
					"interpolation":"STEP",
					"output":132
				},
				{
					"input":101,
					"interpolation":"LINEAR",
					"output":133
				},
				{
					"input":104,
					"interpolation":"STEP",
					"output":134
				},
				{
					"input":104,
					"interpolation":"STEP",
					"output":135
				},
				{
					"input":101,
					"interpolation":"LINEAR",
					"output":136
				},
				{
					"input":101,
					"interpolation":"LINEAR",
					"output":137
				},
				{
					"input":104,
					"interpolation":"LINEAR",
					"output":138
				},
				{
					"input":101,
					"interpolation":"LINEAR",
					"output":139
				},
				{
					"input":101,
					"interpolation":"LINEAR",
					"output":140
				},
				{
					"input":104,
					"interpolation":"LINEAR",
					"output":141
				},
				{
					"input":101,
					"interpolation":"LINEAR",
					"output":142
				},
				{
					"input":101,
					"interpolation":"LINEAR",
					"output":143
				},
				{
					"input":104,
					"interpolation":"LINEAR",
					"output":144
				},
				{
					"input":101,
					"interpolation":"LINEAR",
					"output":145
				},
				{
					"input":104,
					"interpolation":"STEP",
					"output":146
				},
				{
					"input":104,
					"interpolation":"STEP",
					"output":147
				},
				{
					"input":101,
					"interpolation":"LINEAR",
					"output":148
				},
				{
					"input":101,
					"interpolation":"LINEAR",
					"output":149
				},
				{
					"input":104,
					"interpolation":"STEP",
					"output":150
				},
				{
					"input":101,
					"interpolation":"LINEAR",
					"output":151
				},
				{
					"input":101,
					"interpolation":"LINEAR",
					"output":152
				},
				{
					"input":104,
					"interpolation":"LINEAR",
					"output":153
				},
				{
					"input":101,
					"interpolation":"LINEAR",
					"output":154
				},
				{
					"input":101,
					"interpolation":"LINEAR",
					"output":155
				},
				{
					"input":104,
					"interpolation":"LINEAR",
					"output":156
				},
				{
					"input":101,
					"interpolation":"LINEAR",
					"output":157
				},
				{
					"input":101,
					"interpolation":"LINEAR",
					"output":158
				},
				{
					"input":104,
					"interpolation":"LINEAR",
					"output":159
				},
				{
					"input":101,
					"interpolation":"LINEAR",
					"output":160
				},
				{
					"input":104,
					"interpolation":"STEP",
					"output":161
				},
				{
					"input":104,
					"interpolation":"STEP",
					"output":162
				},
				{
					"input":101,
					"interpolation":"LINEAR",
					"output":163
				},
				{
					"input":101,
					"interpolation":"LINEAR",
					"output":164
				},
				{
					"input":104,
					"interpolation":"LINEAR",
					"output":165
				},
				{
					"input":101,
					"interpolation":"LINEAR",
					"output":166
				},
				{
					"input":101,
					"interpolation":"LINEAR",
					"output":167
				},
				{
					"input":104,
					"interpolation":"LINEAR",
					"output":168
				},
				{
					"input":101,
					"interpolation":"LINEAR",
					"output":169
				},
				{
					"input":101,
					"interpolation":"LINEAR",
					"output":170
				},
				{
					"input":104,
					"interpolation":"LINEAR",
					"output":171
				},
				{
					"input":101,
					"interpolation":"LINEAR",
					"output":172
				},
				{
					"input":101,
					"interpolation":"LINEAR",
					"output":173
				},
				{
					"input":104,
					"interpolation":"LINEAR",
					"output":174
				},
				{
					"input":101,
					"interpolation":"LINEAR",
					"output":175
				},
				{
					"input":104,
					"interpolation":"STEP",
					"output":176
				},
				{
					"input":104,
					"interpolation":"STEP",
					"output":177
				}
			]
		}
	],
	"materials":[
		{
			"doubleSided":true,
			"extensions":{
				"KHR_materials_specular":{
					"specularFactor":0
				}
			},
			"extras":{
				"yp":{
					"active_ypaint_node":""
				}
			},
			"name":"cuerpo.007",
			"pbrMetallicRoughness":{
				"metallicFactor":0,
				"roughnessFactor":0.5
			}
		},
		{
			"doubleSided":true,
			"extensions":{
				"KHR_materials_specular":{
					"specularFactor":0
				}
			},
			"extras":{
				"yp":{}
			},
			"name":"casco.003",
			"pbrMetallicRoughness":{
				"metallicFactor":0.7085201740264893,
				"roughnessFactor":0.4641255736351013
			}
		},
		{
			"doubleSided":true,
			"extensions":{
				"KHR_materials_specular":{
					"specularFactor":0
				}
			},
			"extras":{
				"yp":{}
			},
			"name":"cuernos.003",
			"pbrMetallicRoughness":{
				"metallicFactor":0.47533631324768066,
				"roughnessFactor":0.5
			}
		},
		{
			"doubleSided":true,
			"extensions":{
				"KHR_materials_specular":{
					"specularFactor":0
				}
			},
			"extras":{
				"yp":{}
			},
			"name":"arma.003",
			"pbrMetallicRoughness":{
				"metallicFactor":0.5375000238418579,
				"roughnessFactor":0.5
			}
		},
		{
			"doubleSided":true,
			"extensions":{
				"KHR_materials_specular":{
					"specularFactor":0
				}
			},
			"extras":{
				"yp":{}
			},
			"name":"arma 3.003",
			"pbrMetallicRoughness":{
				"metallicFactor":0.3687500059604645,
				"roughnessFactor":0.5
			}
		},
		{
			"doubleSided":true,
			"extensions":{
				"KHR_materials_specular":{
					"specularFactor":0
				}
			},
			"extras":{
				"yp":{}
			},
			"name":"parte de armadura.003",
			"pbrMetallicRoughness":{
				"metallicFactor":0.30714285373687744,
				"roughnessFactor":0.5
			}
		},
		{
			"doubleSided":true,
			"extensions":{
				"KHR_materials_specular":{
					"specularFactor":0
				}
			},
			"extras":{
				"yp":{}
			},
			"name":"armadura pt 2.003",
			"pbrMetallicRoughness":{
				"metallicFactor":0.75,
				"roughnessFactor":0.5
			}
		},
		{
			"doubleSided":true,
			"extensions":{
				"KHR_materials_specular":{
					"specularFactor":0
				}
			},
			"extras":{
				"yp":{}
			},
			"name":"brazales.003",
			"pbrMetallicRoughness":{
				"metallicFactor":0.45625001192092896,
				"roughnessFactor":0.5
			}
		},
		{
			"doubleSided":true,
			"extensions":{
				"KHR_materials_specular":{
					"specularFactor":0
				}
			},
			"extras":{
				"yp":{}
			},
			"name":"armadura 3.003",
			"pbrMetallicRoughness":{
				"metallicFactor":0.10625000298023224,
				"roughnessFactor":0.5
			}
		},
		{
			"doubleSided":true,
			"extensions":{
				"KHR_materials_specular":{
					"specularFactor":0
				}
			},
			"extras":{
				"yp":{}
			},
			"name":"cuerpo.001",
			"pbrMetallicRoughness":{
				"metallicFactor":0,
				"roughnessFactor":0.5
			}
		},
		{
			"doubleSided":true,
			"extensions":{
				"KHR_materials_specular":{
					"specularFactor":0
				}
			},
			"extras":{
				"yp":{}
			},
			"name":"casco",
			"pbrMetallicRoughness":{
				"metallicFactor":0.7085201740264893,
				"roughnessFactor":0.4641255736351013
			}
		},
		{
			"doubleSided":true,
			"extensions":{
				"KHR_materials_specular":{
					"specularFactor":0
				}
			},
			"extras":{
				"yp":{}
			},
			"name":"cuernos",
			"pbrMetallicRoughness":{
				"metallicFactor":0.47533631324768066,
				"roughnessFactor":0.5
			}
		},
		{
			"doubleSided":true,
			"extensions":{
				"KHR_materials_specular":{
					"specularFactor":0
				}
			},
			"extras":{
				"yp":{}
			},
			"name":"arma",
			"pbrMetallicRoughness":{
				"metallicFactor":0.5375000238418579,
				"roughnessFactor":0.5
			}
		},
		{
			"doubleSided":true,
			"extensions":{
				"KHR_materials_specular":{
					"specularFactor":0
				}
			},
			"extras":{
				"yp":{}
			},
			"name":"arma 3",
			"pbrMetallicRoughness":{
				"metallicFactor":0.3687500059604645,
				"roughnessFactor":0.5
			}
		},
		{
			"doubleSided":true,
			"extensions":{
				"KHR_materials_specular":{
					"specularFactor":0
				}
			},
			"extras":{
				"yp":{}
			},
			"name":"parte de armadura",
			"pbrMetallicRoughness":{
				"metallicFactor":0.30714285373687744,
				"roughnessFactor":0.5
			}
		},
		{
			"doubleSided":true,
			"extensions":{
				"KHR_materials_specular":{
					"specularFactor":0
				}
			},
			"extras":{
				"yp":{}
			},
			"name":"armadura pt 2",
			"pbrMetallicRoughness":{
				"metallicFactor":0.75,
				"roughnessFactor":0.5
			}
		},
		{
			"doubleSided":true,
			"extensions":{
				"KHR_materials_specular":{
					"specularFactor":0
				}
			},
			"extras":{
				"yp":{}
			},
			"name":"brazales",
			"pbrMetallicRoughness":{
				"metallicFactor":0.45625001192092896,
				"roughnessFactor":0.5
			}
		},
		{
			"doubleSided":true,
			"extensions":{
				"KHR_materials_specular":{
					"specularFactor":0
				}
			},
			"extras":{
				"yp":{}
			},
			"name":"armadura 3",
			"pbrMetallicRoughness":{
				"metallicFactor":0.10625000298023224,
				"roughnessFactor":0.5
			}
		}
	],
	"meshes":[
		{
			"name":"Cube.006",
			"primitives":[
				{
					"attributes":{
						"POSITION":0,
						"NORMAL":1,
						"TEXCOORD_0":2
					},
					"indices":3,
					"material":0
				},
				{
					"attributes":{
						"POSITION":4,
						"NORMAL":5,
						"TEXCOORD_0":6
					},
					"indices":7,
					"material":1
				},
				{
					"attributes":{
						"POSITION":8,
						"NORMAL":9,
						"TEXCOORD_0":10
					},
					"indices":11,
					"material":2
				},
				{
					"attributes":{
						"POSITION":12,
						"NORMAL":13,
						"TEXCOORD_0":14
					},
					"indices":15,
					"material":3
				},
				{
					"attributes":{
						"POSITION":16,
						"NORMAL":17,
						"TEXCOORD_0":18
					},
					"indices":19,
					"material":4
				},
				{
					"attributes":{
						"POSITION":20,
						"NORMAL":21,
						"TEXCOORD_0":22
					},
					"indices":23,
					"material":5
				},
				{
					"attributes":{
						"POSITION":24,
						"NORMAL":25,
						"TEXCOORD_0":26
					},
					"indices":27,
					"material":6
				},
				{
					"attributes":{
						"POSITION":28,
						"NORMAL":29,
						"TEXCOORD_0":30
					},
					"indices":31,
					"material":7
				},
				{
					"attributes":{
						"POSITION":32,
						"NORMAL":33,
						"TEXCOORD_0":34
					},
					"indices":35,
					"material":8
				}
			]
		},
		{
			"name":"Cube.002",
			"primitives":[
				{
					"attributes":{
						"POSITION":36,
						"NORMAL":37,
						"TEXCOORD_0":38,
						"JOINTS_0":39,
						"JOINTS_1":40,
						"WEIGHTS_0":41,
						"WEIGHTS_1":42
					},
					"indices":43,
					"material":9
				},
				{
					"attributes":{
						"POSITION":44,
						"NORMAL":45,
						"TEXCOORD_0":46,
						"JOINTS_0":47,
						"JOINTS_1":48,
						"WEIGHTS_0":49,
						"WEIGHTS_1":50
					},
					"indices":7,
					"material":10
				},
				{
					"attributes":{
						"POSITION":51,
						"NORMAL":52,
						"TEXCOORD_0":53,
						"JOINTS_0":54,
						"JOINTS_1":55,
						"WEIGHTS_0":56,
						"WEIGHTS_1":57
					},
					"indices":11,
					"material":11
				},
				{
					"attributes":{
						"POSITION":58,
						"NORMAL":59,
						"TEXCOORD_0":60,
						"JOINTS_0":61,
						"JOINTS_1":62,
						"WEIGHTS_0":63,
						"WEIGHTS_1":64
					},
					"indices":15,
					"material":12
				},
				{
					"attributes":{
						"POSITION":65,
						"NORMAL":66,
						"TEXCOORD_0":67,
						"JOINTS_0":68,
						"JOINTS_1":69,
						"WEIGHTS_0":70,
						"WEIGHTS_1":71
					},
					"indices":19,
					"material":13
				},
				{
					"attributes":{
						"POSITION":72,
						"NORMAL":73,
						"TEXCOORD_0":74,
						"JOINTS_0":75,
						"JOINTS_1":76,
						"WEIGHTS_0":77,
						"WEIGHTS_1":78
					},
					"indices":23,
					"material":14
				},
				{
					"attributes":{
						"POSITION":79,
						"NORMAL":80,
						"TEXCOORD_0":81,
						"JOINTS_0":82,
						"JOINTS_1":83,
						"WEIGHTS_0":84,
						"WEIGHTS_1":85
					},
					"indices":27,
					"material":15
				},
				{
					"attributes":{
						"POSITION":86,
						"NORMAL":87,
						"TEXCOORD_0":88,
						"JOINTS_0":89,
						"JOINTS_1":90,
						"WEIGHTS_0":91,
						"WEIGHTS_1":92
					},
					"indices":31,
					"material":16
				},
				{
					"attributes":{
						"POSITION":93,
						"NORMAL":94,
						"TEXCOORD_0":95,
						"JOINTS_0":96,
						"JOINTS_1":97,
						"WEIGHTS_0":98,
						"WEIGHTS_1":99
					},
					"indices":35,
					"material":17
				}
			]
		}
	],
	"skins":[
		{
			"inverseBindMatrices":100,
			"joints":[
				29,
				18,
				17,
				16,
				7,
				6,
				5,
				11,
				10,
				9,
				8,
				15,
				14,
				13,
				12,
				23,
				22,
				21,
				20,
				19,
				28,
				27,
				26,
				25,
				24
			],
			"name":"Blood master anim"
		}
	],
	"accessors":[
		{
			"bufferView":0,
			"componentType":5126,
			"count":1596,
			"max":[
				1.3866245746612549,
				0.8539587259292603,
				0.6738647222518921
			],
			"min":[
				-2.072765350341797,
				-1.5180500745773315,
				-0.6721736192703247
			],
			"type":"VEC3"
		},
		{
			"bufferView":1,
			"componentType":5126,
			"count":1596,
			"type":"VEC3"
		},
		{
			"bufferView":2,
			"componentType":5126,
			"count":1596,
			"type":"VEC2"
		},
		{
			"bufferView":3,
			"componentType":5123,
			"count":7431,
			"type":"SCALAR"
		},
		{
			"bufferView":4,
			"componentType":5126,
			"count":338,
			"max":[
				0.15169179439544678,
				0.9085668325424194,
				0.7156847715377808
			],
			"min":[
				-0.2501208782196045,
				0.5310641527175903,
				0.3086355924606323
			],
			"type":"VEC3"
		},
		{
			"bufferView":5,
			"componentType":5126,
			"count":338,
			"type":"VEC3"
		},
		{
			"bufferView":6,
			"componentType":5126,
			"count":338,
			"type":"VEC2"
		},
		{
			"bufferView":7,
			"componentType":5123,
			"count":1707,
			"type":"SCALAR"
		},
		{
			"bufferView":8,
			"componentType":5126,
			"count":182,
			"max":[
				0.09181833267211914,
				1.0826395750045776,
				0.7728159427642822
			],
			"min":[
				-0.19460535049438477,
				0.8639768362045288,
				0.4930931329727173
			],
			"type":"VEC3"
		},
		{
			"bufferView":9,
			"componentType":5126,
			"count":182,
			"type":"VEC3"
		},
		{
			"bufferView":10,
			"componentType":5126,
			"count":182,
			"type":"VEC2"
		},
		{
			"bufferView":11,
			"componentType":5123,
			"count":912,
			"type":"SCALAR"
		},
		{
			"bufferView":12,
			"componentType":5126,
			"count":408,
			"max":[
				1.9994359016418457,
				0.5253866910934448,
				0.20563077926635742
			],
			"min":[
				0.8672008514404297,
				0.010899901390075684,
				-0.23396989703178406
			],
			"type":"VEC3"
		},
		{
			"bufferView":13,
			"componentType":5126,
			"count":408,
			"type":"VEC3"
		},
		{
			"bufferView":14,
			"componentType":5126,
			"count":408,
			"type":"VEC2"
		},
		{
			"bufferView":15,
			"componentType":5123,
			"count":1968,
			"type":"SCALAR"
		},
		{
			"bufferView":16,
			"componentType":5126,
			"count":78,
			"max":[
				2.231569766998291,
				0.08234810829162598,
				0.02834641933441162
			],
			"min":[
				0.9777014255523682,
				-0.26287031173706055,
				-0.05751931667327881
			],
			"type":"VEC3"
		},
		{
			"bufferView":17,
			"componentType":5126,
			"count":78,
			"type":"VEC3"
		},
		{
			"bufferView":18,
			"componentType":5126,
			"count":78,
			"type":"VEC2"
		},
		{
			"bufferView":19,
			"componentType":5123,
			"count":330,
			"type":"SCALAR"
		},
		{
			"bufferView":20,
			"componentType":5126,
			"count":402,
			"max":[
				0.4150700569152832,
				-0.1990593671798706,
				0.27919071912765503
			],
			"min":[
				-0.5769603252410889,
				-1.1272872686386108,
				-0.7565875053405762
			],
			"type":"VEC3"
		},
		{
			"bufferView":21,
			"componentType":5126,
			"count":402,
			"type":"VEC3"
		},
		{
			"bufferView":22,
			"componentType":5126,
			"count":402,
			"type":"VEC2"
		},
		{
			"bufferView":23,
			"componentType":5123,
			"count":1896,
			"type":"SCALAR"
		},
		{
			"bufferView":24,
			"componentType":5126,
			"count":138,
			"max":[
				-0.21673595905303955,
				0.8368948698043823,
				0.3233799934387207
			],
			"min":[
				-0.917236864566803,
				0.22478961944580078,
				-0.26416486501693726
			],
			"type":"VEC3"
		},
		{
			"bufferView":25,
			"componentType":5126,
			"count":138,
			"type":"VEC3"
		},
		{
			"bufferView":26,
			"componentType":5126,
			"count":138,
			"type":"VEC2"
		},
		{
			"bufferView":27,
			"componentType":5123,
			"count":660,
			"type":"SCALAR"
		},
		{
			"bufferView":28,
			"componentType":5126,
			"count":200,
			"max":[
				-1.0982900857925415,
				0.488545298576355,
				0.11611467599868774
			],
			"min":[
				-1.6981056928634644,
				0.24162542819976807,
				-0.22571125626564026
			],
			"type":"VEC3"
		},
		{
			"bufferView":29,
			"componentType":5126,
			"count":200,
			"type":"VEC3"
		},
		{
			"bufferView":30,
			"componentType":5126,
			"count":200,
			"type":"VEC2"
		},
		{
			"bufferView":31,
			"componentType":5123,
			"count":864,
			"type":"SCALAR"
		},
		{
			"bufferView":32,
			"componentType":5126,
			"count":171,
			"max":[
				0.39941442012786865,
				-0.4245563745498657,
				0.22204023599624634
			],
			"min":[
				0.04878866672515869,
				-0.9960016012191772,
				-0.2651177942752838
			],
			"type":"VEC3"
		},
		{
			"bufferView":33,
			"componentType":5126,
			"count":171,
			"type":"VEC3"
		},
		{
			"bufferView":34,
			"componentType":5126,
			"count":171,
			"type":"VEC2"
		},
		{
			"bufferView":35,
			"componentType":5123,
			"count":876,
			"type":"SCALAR"
		},
		{
			"bufferView":36,
			"componentType":5126,
			"count":1596,
			"max":[
				0.8355206847190857,
				0.9099391102790833,
				0.7995727062225342
			],
			"min":[
				-2.4510140419006348,
				-1.343548059463501,
				-0.4792083203792572
			],
			"type":"VEC3"
		},
		{
			"bufferView":37,
			"componentType":5126,
			"count":1596,
			"type":"VEC3"
		},
		{
			"bufferView":38,
			"componentType":5126,
			"count":1596,
			"type":"VEC2"
		},
		{
			"bufferView":39,
			"componentType":5121,
			"count":1596,
			"type":"VEC4"
		},
		{
			"bufferView":40,
			"componentType":5121,
			"count":1596,
			"type":"VEC4"
		},
		{
			"bufferView":41,
			"componentType":5126,
			"count":1596,
			"type":"VEC4"
		},
		{
			"bufferView":42,
			"componentType":5126,
			"count":1596,
			"type":"VEC4"
		},
		{
			"bufferView":43,
			"componentType":5123,
			"count":7431,
			"type":"SCALAR"
		},
		{
			"bufferView":44,
			"componentType":5126,
			"count":338,
			"max":[
				-0.3377063274383545,
				0.9618186950683594,
				0.8393033146858215
			],
			"min":[
				-0.7194415926933289,
				0.6031785607337952,
				0.45259302854537964
			],
			"type":"VEC3"
		},
		{
			"bufferView":45,
			"componentType":5126,
			"count":338,
			"type":"VEC3"
		},
		{
			"bufferView":46,
			"componentType":5126,
			"count":338,
			"type":"VEC2"
		},
		{
			"bufferView":47,
			"componentType":5121,
			"count":338,
			"type":"VEC4"
		},
		{
			"bufferView":48,
			"componentType":5121,
			"count":338,
			"type":"VEC4"
		},
		{
			"bufferView":49,
			"componentType":5126,
			"count":338,
			"type":"VEC4"
		},
		{
			"bufferView":50,
			"componentType":5126,
			"count":338,
			"type":"VEC4"
		},
		{
			"bufferView":51,
			"componentType":5126,
			"count":182,
			"max":[
				-0.39458805322647095,
				1.1271934509277344,
				0.8935797214508057
			],
			"min":[
				-0.6667000651359558,
				0.9194566011428833,
				0.6278337240219116
			],
			"type":"VEC3"
		},
		{
			"bufferView":52,
			"componentType":5126,
			"count":182,
			"type":"VEC3"
		},
		{
			"bufferView":53,
			"componentType":5126,
			"count":182,
			"type":"VEC2"
		},
		{
			"bufferView":54,
			"componentType":5121,
			"count":182,
			"type":"VEC4"
		},
		{
			"bufferView":55,
			"componentType":5121,
			"count":182,
			"type":"VEC4"
		},
		{
			"bufferView":56,
			"componentType":5126,
			"count":182,
			"type":"VEC4"
		},
		{
			"bufferView":57,
			"componentType":5126,
			"count":182,
			"type":"VEC4"
		},
		{
			"bufferView":58,
			"componentType":5126,
			"count":408,
			"max":[
				1.4177114963531494,
				0.5977847576141357,
				0.35473501682281494
			],
			"min":[
				0.3420509099960327,
				0.10900517553091049,
				-0.06290020793676376
			],
			"type":"VEC3"
		},
		{
			"bufferView":59,
			"componentType":5126,
			"count":408,
			"type":"VEC3"
		},
		{
			"bufferView":60,
			"componentType":5126,
			"count":408,
			"type":"VEC2"
		},
		{
			"bufferView":61,
			"componentType":5121,
			"count":408,
			"type":"VEC4"
		},
		{
			"bufferView":62,
			"componentType":5121,
			"count":408,
			"type":"VEC4"
		},
		{
			"bufferView":63,
			"componentType":5126,
			"count":408,
			"type":"VEC4"
		},
		{
			"bufferView":64,
			"componentType":5126,
			"count":408,
			"type":"VEC4"
		},
		{
			"bufferView":65,
			"componentType":5126,
			"count":78,
			"max":[
				1.638246774673462,
				0.17688338458538055,
				0.18630896508693695
			],
			"min":[
				0.4470301866531372,
				-0.15108563005924225,
				0.1047336757183075
			],
			"type":"VEC3"
		},
		{
			"bufferView":66,
			"componentType":5126,
			"count":78,
			"type":"VEC3"
		},
		{
			"bufferView":67,
			"componentType":5126,
			"count":78,
			"type":"VEC2"
		},
		{
			"bufferView":68,
			"componentType":5121,
			"count":78,
			"type":"VEC4"
		},
		{
			"bufferView":69,
			"componentType":5121,
			"count":78,
			"type":"VEC4"
		},
		{
			"bufferView":70,
			"componentType":5126,
			"count":78,
			"type":"VEC4"
		},
		{
			"bufferView":71,
			"componentType":5126,
			"count":78,
			"type":"VEC4"
		},
		{
			"bufferView":72,
			"componentType":5126,
			"count":402,
			"max":[
				-0.08748823404312134,
				-0.09046315401792526,
				0.4246194064617157
			],
			"min":[
				-1.0299499034881592,
				-0.9723103046417236,
				-0.5594043135643005
			],
			"type":"VEC3"
		},
		{
			"bufferView":73,
			"componentType":5126,
			"count":402,
			"type":"VEC3"
		},
		{
			"bufferView":74,
			"componentType":5126,
			"count":402,
			"type":"VEC2"
		},
		{
			"bufferView":75,
			"componentType":5121,
			"count":402,
			"type":"VEC4"
		},
		{
			"bufferView":76,
			"componentType":5121,
			"count":402,
			"type":"VEC4"
		},
		{
			"bufferView":77,
			"componentType":5126,
			"count":402,
			"type":"VEC4"
		},
		{
			"bufferView":78,
			"componentType":5126,
			"count":402,
			"type":"VEC4"
		},
		{
			"bufferView":79,
			"componentType":5126,
			"count":138,
			"max":[
				-0.6877248287200928,
				0.8937277793884277,
				0.4666006863117218
			],
			"min":[
				-1.3532238006591797,
				0.31220754981040955,
				-0.09158644825220108
			],
			"type":"VEC3"
		},
		{
			"bufferView":80,
			"componentType":5126,
			"count":138,
			"type":"VEC3"
		},
		{
			"bufferView":81,
			"componentType":5126,
			"count":138,
			"type":"VEC2"
		},
		{
			"bufferView":82,
			"componentType":5121,
			"count":138,
			"type":"VEC4"
		},
		{
			"bufferView":83,
			"componentType":5121,
			"count":138,
			"type":"VEC4"
		},
		{
			"bufferView":84,
			"componentType":5126,
			"count":138,
			"type":"VEC4"
		},
		{
			"bufferView":85,
			"componentType":5126,
			"count":138,
			"type":"VEC4"
		},
		{
			"bufferView":86,
			"componentType":5126,
			"count":200,
			"max":[
				-1.5252304077148438,
				0.5627843141555786,
				0.26969173550605774
			],
			"min":[
				-2.0950751304626465,
				0.3282020688056946,
				-0.05505421757698059
			],
			"type":"VEC3"
		},
		{
			"bufferView":87,
			"componentType":5126,
			"count":200,
			"type":"VEC3"
		},
		{
			"bufferView":88,
			"componentType":5126,
			"count":200,
			"type":"VEC2"
		},
		{
			"bufferView":89,
			"componentType":5121,
			"count":200,
			"type":"VEC4"
		},
		{
			"bufferView":90,
			"componentType":5121,
			"count":200,
			"type":"VEC4"
		},
		{
			"bufferView":91,
			"componentType":5126,
			"count":200,
			"type":"VEC4"
		},
		{
			"bufferView":92,
			"componentType":5126,
			"count":200,
			"type":"VEC4"
		},
		{
			"bufferView":93,
			"componentType":5126,
			"count":171,
			"max":[
				-0.10236161947250366,
				-0.304692804813385,
				0.3703245520591736
			],
			"min":[
				-0.4354676902294159,
				-0.8475846648216248,
				-0.0924917533993721
			],
			"type":"VEC3"
		},
		{
			"bufferView":94,
			"componentType":5126,
			"count":171,
			"type":"VEC3"
		},
		{
			"bufferView":95,
			"componentType":5126,
			"count":171,
			"type":"VEC2"
		},
		{
			"bufferView":96,
			"componentType":5121,
			"count":171,
			"type":"VEC4"
		},
		{
			"bufferView":97,
			"componentType":5121,
			"count":171,
			"type":"VEC4"
		},
		{
			"bufferView":98,
			"componentType":5126,
			"count":171,
			"type":"VEC4"
		},
		{
			"bufferView":99,
			"componentType":5126,
			"count":171,
			"type":"VEC4"
		},
		{
			"bufferView":100,
			"componentType":5126,
			"count":25,
			"type":"MAT4"
		},
		{
			"bufferView":101,
			"componentType":5126,
			"count":163,
			"max":[
				16.166666666666668
			],
			"min":[
				10.766666666666667
			],
			"type":"SCALAR"
		},
		{
			"bufferView":102,
			"componentType":5126,
			"count":163,
			"type":"VEC3"
		},
		{
			"bufferView":103,
			"componentType":5126,
			"count":163,
			"type":"VEC4"
		},
		{
			"bufferView":104,
			"componentType":5126,
			"count":2,
			"max":[
				16.166666666666668
			],
			"min":[
				10.766666666666667
			],
			"type":"SCALAR"
		},
		{
			"bufferView":105,
			"componentType":5126,
			"count":2,
			"type":"VEC3"
		},
		{
			"bufferView":106,
			"componentType":5126,
			"count":163,
			"type":"VEC3"
		},
		{
			"bufferView":107,
			"componentType":5126,
			"count":163,
			"type":"VEC4"
		},
		{
			"bufferView":108,
			"componentType":5126,
			"count":2,
			"type":"VEC3"
		},
		{
			"bufferView":109,
			"componentType":5126,
			"count":163,
			"type":"VEC3"
		},
		{
			"bufferView":110,
			"componentType":5126,
			"count":163,
			"type":"VEC4"
		},
		{
			"bufferView":111,
			"componentType":5126,
			"count":2,
			"type":"VEC3"
		},
		{
			"bufferView":112,
			"componentType":5126,
			"count":163,
			"type":"VEC3"
		},
		{
			"bufferView":113,
			"componentType":5126,
			"count":163,
			"type":"VEC4"
		},
		{
			"bufferView":114,
			"componentType":5126,
			"count":2,
			"type":"VEC3"
		},
		{
			"bufferView":115,
			"componentType":5126,
			"count":163,
			"type":"VEC3"
		},
		{
			"bufferView":116,
			"componentType":5126,
			"count":163,
			"type":"VEC4"
		},
		{
			"bufferView":117,
			"componentType":5126,
			"count":2,
			"type":"VEC3"
		},
		{
			"bufferView":118,
			"componentType":5126,
			"count":163,
			"type":"VEC3"
		},
		{
			"bufferView":119,
			"componentType":5126,
			"count":163,
			"type":"VEC4"
		},
		{
			"bufferView":120,
			"componentType":5126,
			"count":2,
			"type":"VEC3"
		},
		{
			"bufferView":121,
			"componentType":5126,
			"count":163,
			"type":"VEC3"
		},
		{
			"bufferView":122,
			"componentType":5126,
			"count":2,
			"type":"VEC4"
		},
		{
			"bufferView":123,
			"componentType":5126,
			"count":2,
			"type":"VEC3"
		},
		{
			"bufferView":124,
			"componentType":5126,
			"count":163,
			"type":"VEC3"
		},
		{
			"bufferView":125,
			"componentType":5126,
			"count":163,
			"type":"VEC4"
		},
		{
			"bufferView":126,
			"componentType":5126,
			"count":2,
			"type":"VEC3"
		},
		{
			"bufferView":127,
			"componentType":5126,
			"count":163,
			"type":"VEC3"
		},
		{
			"bufferView":128,
			"componentType":5126,
			"count":163,
			"type":"VEC4"
		},
		{
			"bufferView":129,
			"componentType":5126,
			"count":2,
			"type":"VEC3"
		},
		{
			"bufferView":130,
			"componentType":5126,
			"count":163,
			"type":"VEC3"
		},
		{
			"bufferView":131,
			"componentType":5126,
			"count":163,
			"type":"VEC4"
		},
		{
			"bufferView":132,
			"componentType":5126,
			"count":2,
			"type":"VEC3"
		},
		{
			"bufferView":133,
			"componentType":5126,
			"count":163,
			"type":"VEC3"
		},
		{
			"bufferView":134,
			"componentType":5126,
			"count":2,
			"type":"VEC4"
		},
		{
			"bufferView":135,
			"componentType":5126,
			"count":2,
			"type":"VEC3"
		},
		{
			"bufferView":136,
			"componentType":5126,
			"count":163,
			"type":"VEC3"
		},
		{
			"bufferView":137,
			"componentType":5126,
			"count":163,
			"type":"VEC4"
		},
		{
			"bufferView":138,
			"componentType":5126,
			"count":2,
			"type":"VEC3"
		},
		{
			"bufferView":139,
			"componentType":5126,
			"count":163,
			"type":"VEC3"
		},
		{
			"bufferView":140,
			"componentType":5126,
			"count":163,
			"type":"VEC4"
		},
		{
			"bufferView":141,
			"componentType":5126,
			"count":2,
			"type":"VEC3"
		},
		{
			"bufferView":142,
			"componentType":5126,
			"count":163,
			"type":"VEC3"
		},
		{
			"bufferView":143,
			"componentType":5126,
			"count":163,
			"type":"VEC4"
		},
		{
			"bufferView":144,
			"componentType":5126,
			"count":2,
			"type":"VEC3"
		},
		{
			"bufferView":145,
			"componentType":5126,
			"count":163,
			"type":"VEC3"
		},
		{
			"bufferView":146,
			"componentType":5126,
			"count":2,
			"type":"VEC4"
		},
		{
			"bufferView":147,
			"componentType":5126,
			"count":2,
			"type":"VEC3"
		},
		{
			"bufferView":148,
			"componentType":5126,
			"count":163,
			"type":"VEC3"
		},
		{
			"bufferView":149,
			"componentType":5126,
			"count":163,
			"type":"VEC4"
		},
		{
			"bufferView":150,
			"componentType":5126,
			"count":2,
			"type":"VEC3"
		},
		{
			"bufferView":151,
			"componentType":5126,
			"count":163,
			"type":"VEC3"
		},
		{
			"bufferView":152,
			"componentType":5126,
			"count":163,
			"type":"VEC4"
		},
		{
			"bufferView":153,
			"componentType":5126,
			"count":2,
			"type":"VEC3"
		},
		{
			"bufferView":154,
			"componentType":5126,
			"count":163,
			"type":"VEC3"
		},
		{
			"bufferView":155,
			"componentType":5126,
			"count":163,
			"type":"VEC4"
		},
		{
			"bufferView":156,
			"componentType":5126,
			"count":2,
			"type":"VEC3"
		},
		{
			"bufferView":157,
			"componentType":5126,
			"count":163,
			"type":"VEC3"
		},
		{
			"bufferView":158,
			"componentType":5126,
			"count":163,
			"type":"VEC4"
		},
		{
			"bufferView":159,
			"componentType":5126,
			"count":2,
			"type":"VEC3"
		},
		{
			"bufferView":160,
			"componentType":5126,
			"count":163,
			"type":"VEC3"
		},
		{
			"bufferView":161,
			"componentType":5126,
			"count":2,
			"type":"VEC4"
		},
		{
			"bufferView":162,
			"componentType":5126,
			"count":2,
			"type":"VEC3"
		},
		{
			"bufferView":163,
			"componentType":5126,
			"count":163,
			"type":"VEC3"
		},
		{
			"bufferView":164,
			"componentType":5126,
			"count":163,
			"type":"VEC4"
		},
		{
			"bufferView":165,
			"componentType":5126,
			"count":2,
			"type":"VEC3"
		},
		{
			"bufferView":166,
			"componentType":5126,
			"count":163,
			"type":"VEC3"
		},
		{
			"bufferView":167,
			"componentType":5126,
			"count":163,
			"type":"VEC4"
		},
		{
			"bufferView":168,
			"componentType":5126,
			"count":2,
			"type":"VEC3"
		},
		{
			"bufferView":169,
			"componentType":5126,
			"count":163,
			"type":"VEC3"
		},
		{
			"bufferView":170,
			"componentType":5126,
			"count":163,
			"type":"VEC4"
		},
		{
			"bufferView":171,
			"componentType":5126,
			"count":2,
			"type":"VEC3"
		},
		{
			"bufferView":172,
			"componentType":5126,
			"count":163,
			"type":"VEC3"
		},
		{
			"bufferView":173,
			"componentType":5126,
			"count":163,
			"type":"VEC4"
		},
		{
			"bufferView":174,
			"componentType":5126,
			"count":2,
			"type":"VEC3"
		},
		{
			"bufferView":175,
			"componentType":5126,
			"count":163,
			"type":"VEC3"
		},
		{
			"bufferView":176,
			"componentType":5126,
			"count":2,
			"type":"VEC4"
		},
		{
			"bufferView":177,
			"componentType":5126,
			"count":2,
			"type":"VEC3"
		}
	],
	"bufferViews":[
		{
			"buffer":0,
			"byteLength":19152,
			"byteOffset":0,
			"target":34962
		},
		{
			"buffer":0,
			"byteLength":19152,
			"byteOffset":19152,
			"target":34962
		},
		{
			"buffer":0,
			"byteLength":12768,
			"byteOffset":38304,
			"target":34962
		},
		{
			"buffer":0,
			"byteLength":14862,
			"byteOffset":51072,
			"target":34963
		},
		{
			"buffer":0,
			"byteLength":4056,
			"byteOffset":65936,
			"target":34962
		},
		{
			"buffer":0,
			"byteLength":4056,
			"byteOffset":69992,
			"target":34962
		},
		{
			"buffer":0,
			"byteLength":2704,
			"byteOffset":74048,
			"target":34962
		},
		{
			"buffer":0,
			"byteLength":3414,
			"byteOffset":76752,
			"target":34963
		},
		{
			"buffer":0,
			"byteLength":2184,
			"byteOffset":80168,
			"target":34962
		},
		{
			"buffer":0,
			"byteLength":2184,
			"byteOffset":82352,
			"target":34962
		},
		{
			"buffer":0,
			"byteLength":1456,
			"byteOffset":84536,
			"target":34962
		},
		{
			"buffer":0,
			"byteLength":1824,
			"byteOffset":85992,
			"target":34963
		},
		{
			"buffer":0,
			"byteLength":4896,
			"byteOffset":87816,
			"target":34962
		},
		{
			"buffer":0,
			"byteLength":4896,
			"byteOffset":92712,
			"target":34962
		},
		{
			"buffer":0,
			"byteLength":3264,
			"byteOffset":97608,
			"target":34962
		},
		{
			"buffer":0,
			"byteLength":3936,
			"byteOffset":100872,
			"target":34963
		},
		{
			"buffer":0,
			"byteLength":936,
			"byteOffset":104808,
			"target":34962
		},
		{
			"buffer":0,
			"byteLength":936,
			"byteOffset":105744,
			"target":34962
		},
		{
			"buffer":0,
			"byteLength":624,
			"byteOffset":106680,
			"target":34962
		},
		{
			"buffer":0,
			"byteLength":660,
			"byteOffset":107304,
			"target":34963
		},
		{
			"buffer":0,
			"byteLength":4824,
			"byteOffset":107964,
			"target":34962
		},
		{
			"buffer":0,
			"byteLength":4824,
			"byteOffset":112788,
			"target":34962
		},
		{
			"buffer":0,
			"byteLength":3216,
			"byteOffset":117612,
			"target":34962
		},
		{
			"buffer":0,
			"byteLength":3792,
			"byteOffset":120828,
			"target":34963
		},
		{
			"buffer":0,
			"byteLength":1656,
			"byteOffset":124620,
			"target":34962
		},
		{
			"buffer":0,
			"byteLength":1656,
			"byteOffset":126276,
			"target":34962
		},
		{
			"buffer":0,
			"byteLength":1104,
			"byteOffset":127932,
			"target":34962
		},
		{
			"buffer":0,
			"byteLength":1320,
			"byteOffset":129036,
			"target":34963
		},
		{
			"buffer":0,
			"byteLength":2400,
			"byteOffset":130356,
			"target":34962
		},
		{
			"buffer":0,
			"byteLength":2400,
			"byteOffset":132756,
			"target":34962
		},
		{
			"buffer":0,
			"byteLength":1600,
			"byteOffset":135156,
			"target":34962
		},
		{
			"buffer":0,
			"byteLength":1728,
			"byteOffset":136756,
			"target":34963
		},
		{
			"buffer":0,
			"byteLength":2052,
			"byteOffset":138484,
			"target":34962
		},
		{
			"buffer":0,
			"byteLength":2052,
			"byteOffset":140536,
			"target":34962
		},
		{
			"buffer":0,
			"byteLength":1368,
			"byteOffset":142588,
			"target":34962
		},
		{
			"buffer":0,
			"byteLength":1752,
			"byteOffset":143956,
			"target":34963
		},
		{
			"buffer":0,
			"byteLength":19152,
			"byteOffset":145708,
			"target":34962
		},
		{
			"buffer":0,
			"byteLength":19152,
			"byteOffset":164860,
			"target":34962
		},
		{
			"buffer":0,
			"byteLength":12768,
			"byteOffset":184012,
			"target":34962
		},
		{
			"buffer":0,
			"byteLength":6384,
			"byteOffset":196780,
			"target":34962
		},
		{
			"buffer":0,
			"byteLength":6384,
			"byteOffset":203164,
			"target":34962
		},
		{
			"buffer":0,
			"byteLength":25536,
			"byteOffset":209548,
			"target":34962
		},
		{
			"buffer":0,
			"byteLength":25536,
			"byteOffset":235084,
			"target":34962
		},
		{
			"buffer":0,
			"byteLength":14862,
			"byteOffset":260620,
			"target":34963
		},
		{
			"buffer":0,
			"byteLength":4056,
			"byteOffset":275484,
			"target":34962
		},
		{
			"buffer":0,
			"byteLength":4056,
			"byteOffset":279540,
			"target":34962
		},
		{
			"buffer":0,
			"byteLength":2704,
			"byteOffset":283596,
			"target":34962
		},
		{
			"buffer":0,
			"byteLength":1352,
			"byteOffset":286300,
			"target":34962
		},
		{
			"buffer":0,
			"byteLength":1352,
			"byteOffset":287652,
			"target":34962
		},
		{
			"buffer":0,
			"byteLength":5408,
			"byteOffset":289004,
			"target":34962
		},
		{
			"buffer":0,
			"byteLength":5408,
			"byteOffset":294412,
			"target":34962
		},
		{
			"buffer":0,
			"byteLength":2184,
			"byteOffset":299820,
			"target":34962
		},
		{
			"buffer":0,
			"byteLength":2184,
			"byteOffset":302004,
			"target":34962
		},
		{
			"buffer":0,
			"byteLength":1456,
			"byteOffset":304188,
			"target":34962
		},
		{
			"buffer":0,
			"byteLength":728,
			"byteOffset":305644,
			"target":34962
		},
		{
			"buffer":0,
			"byteLength":728,
			"byteOffset":306372,
			"target":34962
		},
		{
			"buffer":0,
			"byteLength":2912,
			"byteOffset":307100,
			"target":34962
		},
		{
			"buffer":0,
			"byteLength":2912,
			"byteOffset":310012,
			"target":34962
		},
		{
			"buffer":0,
			"byteLength":4896,
			"byteOffset":312924,
			"target":34962
		},
		{
			"buffer":0,
			"byteLength":4896,
			"byteOffset":317820,
			"target":34962
		},
		{
			"buffer":0,
			"byteLength":3264,
			"byteOffset":322716,
			"target":34962
		},
		{
			"buffer":0,
			"byteLength":1632,
			"byteOffset":325980,
			"target":34962
		},
		{
			"buffer":0,
			"byteLength":1632,
			"byteOffset":327612,
			"target":34962
		},
		{
			"buffer":0,
			"byteLength":6528,
			"byteOffset":329244,
			"target":34962
		},
		{
			"buffer":0,
			"byteLength":6528,
			"byteOffset":335772,
			"target":34962
		},
		{
			"buffer":0,
			"byteLength":936,
			"byteOffset":342300,
			"target":34962
		},
		{
			"buffer":0,
			"byteLength":936,
			"byteOffset":343236,
			"target":34962
		},
		{
			"buffer":0,
			"byteLength":624,
			"byteOffset":344172,
			"target":34962
		},
		{
			"buffer":0,
			"byteLength":312,
			"byteOffset":344796,
			"target":34962
		},
		{
			"buffer":0,
			"byteLength":312,
			"byteOffset":345108,
			"target":34962
		},
		{
			"buffer":0,
			"byteLength":1248,
			"byteOffset":345420,
			"target":34962
		},
		{
			"buffer":0,
			"byteLength":1248,
			"byteOffset":346668,
			"target":34962
		},
		{
			"buffer":0,
			"byteLength":4824,
			"byteOffset":347916,
			"target":34962
		},
		{
			"buffer":0,
			"byteLength":4824,
			"byteOffset":352740,
			"target":34962
		},
		{
			"buffer":0,
			"byteLength":3216,
			"byteOffset":357564,
			"target":34962
		},
		{
			"buffer":0,
			"byteLength":1608,
			"byteOffset":360780,
			"target":34962
		},
		{
			"buffer":0,
			"byteLength":1608,
			"byteOffset":362388,
			"target":34962
		},
		{
			"buffer":0,
			"byteLength":6432,
			"byteOffset":363996,
			"target":34962
		},
		{
			"buffer":0,
			"byteLength":6432,
			"byteOffset":370428,
			"target":34962
		},
		{
			"buffer":0,
			"byteLength":1656,
			"byteOffset":376860,
			"target":34962
		},
		{
			"buffer":0,
			"byteLength":1656,
			"byteOffset":378516,
			"target":34962
		},
		{
			"buffer":0,
			"byteLength":1104,
			"byteOffset":380172,
			"target":34962
		},
		{
			"buffer":0,
			"byteLength":552,
			"byteOffset":381276,
			"target":34962
		},
		{
			"buffer":0,
			"byteLength":552,
			"byteOffset":381828,
			"target":34962
		},
		{
			"buffer":0,
			"byteLength":2208,
			"byteOffset":382380,
			"target":34962
		},
		{
			"buffer":0,
			"byteLength":2208,
			"byteOffset":384588,
			"target":34962
		},
		{
			"buffer":0,
			"byteLength":2400,
			"byteOffset":386796,
			"target":34962
		},
		{
			"buffer":0,
			"byteLength":2400,
			"byteOffset":389196,
			"target":34962
		},
		{
			"buffer":0,
			"byteLength":1600,
			"byteOffset":391596,
			"target":34962
		},
		{
			"buffer":0,
			"byteLength":800,
			"byteOffset":393196,
			"target":34962
		},
		{
			"buffer":0,
			"byteLength":800,
			"byteOffset":393996,
			"target":34962
		},
		{
			"buffer":0,
			"byteLength":3200,
			"byteOffset":394796,
			"target":34962
		},
		{
			"buffer":0,
			"byteLength":3200,
			"byteOffset":397996,
			"target":34962
		},
		{
			"buffer":0,
			"byteLength":2052,
			"byteOffset":401196,
			"target":34962
		},
		{
			"buffer":0,
			"byteLength":2052,
			"byteOffset":403248,
			"target":34962
		},
		{
			"buffer":0,
			"byteLength":1368,
			"byteOffset":405300,
			"target":34962
		},
		{
			"buffer":0,
			"byteLength":684,
			"byteOffset":406668,
			"target":34962
		},
		{
			"buffer":0,
			"byteLength":684,
			"byteOffset":407352,
			"target":34962
		},
		{
			"buffer":0,
			"byteLength":2736,
			"byteOffset":408036,
			"target":34962
		},
		{
			"buffer":0,
			"byteLength":2736,
			"byteOffset":410772,
			"target":34962
		},
		{
			"buffer":0,
			"byteLength":1600,
			"byteOffset":413508
		},
		{
			"buffer":0,
			"byteLength":652,
			"byteOffset":415108
		},
		{
			"buffer":0,
			"byteLength":1956,
			"byteOffset":415760
		},
		{
			"buffer":0,
			"byteLength":2608,
			"byteOffset":417716
		},
		{
			"buffer":0,
			"byteLength":8,
			"byteOffset":420324
		},
		{
			"buffer":0,
			"byteLength":24,
			"byteOffset":420332
		},
		{
			"buffer":0,
			"byteLength":1956,
			"byteOffset":420356
		},
		{
			"buffer":0,
			"byteLength":2608,
			"byteOffset":422312
		},
		{
			"buffer":0,
			"byteLength":24,
			"byteOffset":424920
		},
		{
			"buffer":0,
			"byteLength":1956,
			"byteOffset":424944
		},
		{
			"buffer":0,
			"byteLength":2608,
			"byteOffset":426900
		},
		{
			"buffer":0,
			"byteLength":24,
			"byteOffset":429508
		},
		{
			"buffer":0,
			"byteLength":1956,
			"byteOffset":429532
		},
		{
			"buffer":0,
			"byteLength":2608,
			"byteOffset":431488
		},
		{
			"buffer":0,
			"byteLength":24,
			"byteOffset":434096
		},
		{
			"buffer":0,
			"byteLength":1956,
			"byteOffset":434120
		},
		{
			"buffer":0,
			"byteLength":2608,
			"byteOffset":436076
		},
		{
			"buffer":0,
			"byteLength":24,
			"byteOffset":438684
		},
		{
			"buffer":0,
			"byteLength":1956,
			"byteOffset":438708
		},
		{
			"buffer":0,
			"byteLength":2608,
			"byteOffset":440664
		},
		{
			"buffer":0,
			"byteLength":24,
			"byteOffset":443272
		},
		{
			"buffer":0,
			"byteLength":1956,
			"byteOffset":443296
		},
		{
			"buffer":0,
			"byteLength":32,
			"byteOffset":445252
		},
		{
			"buffer":0,
			"byteLength":24,
			"byteOffset":445284
		},
		{
			"buffer":0,
			"byteLength":1956,
			"byteOffset":445308
		},
		{
			"buffer":0,
			"byteLength":2608,
			"byteOffset":447264
		},
		{
			"buffer":0,
			"byteLength":24,
			"byteOffset":449872
		},
		{
			"buffer":0,
			"byteLength":1956,
			"byteOffset":449896
		},
		{
			"buffer":0,
			"byteLength":2608,
			"byteOffset":451852
		},
		{
			"buffer":0,
			"byteLength":24,
			"byteOffset":454460
		},
		{
			"buffer":0,
			"byteLength":1956,
			"byteOffset":454484
		},
		{
			"buffer":0,
			"byteLength":2608,
			"byteOffset":456440
		},
		{
			"buffer":0,
			"byteLength":24,
			"byteOffset":459048
		},
		{
			"buffer":0,
			"byteLength":1956,
			"byteOffset":459072
		},
		{
			"buffer":0,
			"byteLength":32,
			"byteOffset":461028
		},
		{
			"buffer":0,
			"byteLength":24,
			"byteOffset":461060
		},
		{
			"buffer":0,
			"byteLength":1956,
			"byteOffset":461084
		},
		{
			"buffer":0,
			"byteLength":2608,
			"byteOffset":463040
		},
		{
			"buffer":0,
			"byteLength":24,
			"byteOffset":465648
		},
		{
			"buffer":0,
			"byteLength":1956,
			"byteOffset":465672
		},
		{
			"buffer":0,
			"byteLength":2608,
			"byteOffset":467628
		},
		{
			"buffer":0,
			"byteLength":24,
			"byteOffset":470236
		},
		{
			"buffer":0,
			"byteLength":1956,
			"byteOffset":470260
		},
		{
			"buffer":0,
			"byteLength":2608,
			"byteOffset":472216
		},
		{
			"buffer":0,
			"byteLength":24,
			"byteOffset":474824
		},
		{
			"buffer":0,
			"byteLength":1956,
			"byteOffset":474848
		},
		{
			"buffer":0,
			"byteLength":32,
			"byteOffset":476804
		},
		{
			"buffer":0,
			"byteLength":24,
			"byteOffset":476836
		},
		{
			"buffer":0,
			"byteLength":1956,
			"byteOffset":476860
		},
		{
			"buffer":0,
			"byteLength":2608,
			"byteOffset":478816
		},
		{
			"buffer":0,
			"byteLength":24,
			"byteOffset":481424
		},
		{
			"buffer":0,
			"byteLength":1956,
			"byteOffset":481448
		},
		{
			"buffer":0,
			"byteLength":2608,
			"byteOffset":483404
		},
		{
			"buffer":0,
			"byteLength":24,
			"byteOffset":486012
		},
		{
			"buffer":0,
			"byteLength":1956,
			"byteOffset":486036
		},
		{
			"buffer":0,
			"byteLength":2608,
			"byteOffset":487992
		},
		{
			"buffer":0,
			"byteLength":24,
			"byteOffset":490600
		},
		{
			"buffer":0,
			"byteLength":1956,
			"byteOffset":490624
		},
		{
			"buffer":0,
			"byteLength":2608,
			"byteOffset":492580
		},
		{
			"buffer":0,
			"byteLength":24,
			"byteOffset":495188
		},
		{
			"buffer":0,
			"byteLength":1956,
			"byteOffset":495212
		},
		{
			"buffer":0,
			"byteLength":32,
			"byteOffset":497168
		},
		{
			"buffer":0,
			"byteLength":24,
			"byteOffset":497200
		},
		{
			"buffer":0,
			"byteLength":1956,
			"byteOffset":497224
		},
		{
			"buffer":0,
			"byteLength":2608,
			"byteOffset":499180
		},
		{
			"buffer":0,
			"byteLength":24,
			"byteOffset":501788
		},
		{
			"buffer":0,
			"byteLength":1956,
			"byteOffset":501812
		},
		{
			"buffer":0,
			"byteLength":2608,
			"byteOffset":503768
		},
		{
			"buffer":0,
			"byteLength":24,
			"byteOffset":506376
		},
		{
			"buffer":0,
			"byteLength":1956,
			"byteOffset":506400
		},
		{
			"buffer":0,
			"byteLength":2608,
			"byteOffset":508356
		},
		{
			"buffer":0,
			"byteLength":24,
			"byteOffset":510964
		},
		{
			"buffer":0,
			"byteLength":1956,
			"byteOffset":510988
		},
		{
			"buffer":0,
			"byteLength":2608,
			"byteOffset":512944
		},
		{
			"buffer":0,
			"byteLength":24,
			"byteOffset":515552
		},
		{
			"buffer":0,
			"byteLength":1956,
			"byteOffset":515576
		},
		{
			"buffer":0,
			"byteLength":32,
			"byteOffset":517532
		},
		{
			"buffer":0,
			"byteLength":24,
			"byteOffset":517564
		}
	],
	"buffers":[
		{
			"byteLength":517588,
			"uri":"Monster%20pack-669f5fdaf498719981d9b14f2de1efe3.bin"
		}
	]
}
